<?xml version="1.0" standalone="no"?>
<!DOCTYPE svg PUBLIC "-//W3C//DTD SVG 20010904//EN"
 "http://www.w3.org/TR/2001/REC-SVG-20010904/DTD/svg10.dtd">
<svg version="1.0" xmlns="http://www.w3.org/2000/svg"
 width="2560.000000pt" height="800.000000pt" viewBox="0 0 2560.000000 800.000000"
 preserveAspectRatio="xMidYMid meet">
<metadata>
Created by potrace 1.16, written by Peter Selinger 2001-2019
</metadata>
<g transform="translate(0.000000,800.000000) scale(0.100000,-0.100000)"
fill="#000000" stroke="none">
<path d="M0 4000 l0 -4000 12800 0 12800 0 0 4000 0 4000 -12800 0 -12800 0 0
-4000z m8515 3916 c112 -30 229 -78 312 -128 74 -44 188 -151 243 -229 25 -34
56 -75 70 -91 l25 -30 98 90 c216 198 435 311 747 384 81 19 124 22 290 22
169 0 207 -3 285 -22 224 -56 366 -116 524 -219 52 -35 86 -51 90 -44 11 18
139 71 220 91 99 26 241 25 436 0 445 -57 487 -63 855 -120 242 -38 298 -52
380 -97 142 -77 138 -76 199 -65 160 30 269 23 476 -29 341 -85 516 -179 651
-351 83 -108 76 -105 187 -52 102 48 210 74 305 74 146 0 501 -93 653 -171
236 -122 381 -340 404 -609 7 -79 -9 -240 -26 -272 -6 -11 -8 -22 -5 -25 7 -8
167 25 256 52 180 55 214 63 475 99 341 49 697 44 1059 -14 250 -40 251 -40
328 14 193 135 457 282 628 351 52 21 103 45 112 54 9 9 51 89 92 178 151 324
297 536 530 769 209 208 335 294 494 335 85 21 176 24 254 8 167 -35 295 -168
343 -354 25 -98 21 -171 -20 -345 -22 -91 -55 -298 -55 -342 0 -20 4 -39 9
-43 6 -3 76 -12 156 -20 294 -30 680 -116 850 -190 17 -7 62 -25 100 -40 166
-65 394 -190 605 -332 68 -46 133 -86 145 -89 11 -3 77 6 145 20 312 61 402
70 740 70 324 0 412 -7 693 -59 364 -68 816 -250 1130 -457 273 -180 404 -318
471 -498 61 -161 59 -289 -8 -515 -13 -44 -33 -122 -45 -173 -20 -87 -131
-488 -206 -742 -18 -63 -48 -164 -65 -225 -39 -137 -103 -286 -148 -346 -19
-26 -67 -74 -108 -109 -41 -34 -76 -72 -78 -83 -2 -12 -9 -67 -15 -122 -10
-94 -35 -199 -66 -270 -7 -16 -32 -75 -55 -130 -70 -163 -198 -414 -247 -485
-104 -147 -95 -123 -87 -232 13 -185 -48 -393 -161 -553 -48 -67 -168 -185
-238 -233 -180 -124 -444 -204 -677 -204 -203 0 -454 52 -566 117 -70 41 -147
110 -189 168 -22 31 -45 57 -51 57 -15 0 -35 -24 -94 -113 -230 -353 -534
-637 -795 -742 -124 -50 -268 -45 -385 15 -19 10 -68 48 -109 84 -40 36 -79
66 -85 67 -26 3 -66 -3 -136 -21 -176 -45 -337 -76 -550 -106 -177 -25 -624
-26 -800 -1 -384 55 -713 135 -931 227 -115 49 -118 48 -163 -21 -91 -142
-286 -231 -438 -200 -163 32 -274 115 -492 364 -37 42 -79 80 -92 83 -15 4
-51 -4 -93 -19 -99 -37 -212 -51 -365 -44 -369 15 -682 200 -817 482 -63 131
-80 215 -82 400 -1 88 2 177 6 197 8 37 6 40 -67 118 -55 59 -86 103 -114 163
-56 118 -67 144 -92 222 -13 39 -26 75 -31 80 -4 6 -13 32 -19 58 -7 26 -16
49 -20 52 -4 3 -11 -52 -15 -123 -3 -70 -13 -235 -21 -367 -15 -265 -28 -528
-44 -917 -14 -333 -21 -386 -60 -485 -40 -102 -87 -174 -165 -254 -73 -75
-124 -111 -218 -154 -127 -58 -196 -68 -460 -63 -214 5 -239 7 -317 31 -190
57 -319 164 -409 337 -49 94 -64 109 -89 88 -9 -8 -46 -39 -82 -70 -299 -256
-742 -404 -1103 -368 -143 14 -234 32 -357 70 -183 56 -283 109 -466 247 -61
46 -120 83 -130 83 -13 0 -31 -21 -54 -62 -40 -70 -160 -187 -243 -237 -31
-18 -96 -47 -144 -65 l-88 -31 -250 0 c-266 0 -306 5 -419 52 -167 69 -276
175 -361 349 -30 61 -55 117 -55 123 0 17 -32 20 -285 24 -329 6 -433 29 -589
127 -152 96 -265 275 -295 468 -6 39 -11 181 -11 316 0 267 10 347 56 470 24
61 143 250 224 356 29 37 217 300 449 627 407 571 503 669 736 743 60 20 99
24 270 28 311 7 507 -12 665 -64 125 -42 279 -167 365 -296 l38 -58 33 28
c238 198 355 268 574 342 118 39 233 66 325 76 96 10 109 11 115 13 3 1 -44
26 -105 55 l-110 53 -120 5 c-66 3 -174 13 -240 22 -281 39 -410 58 -416 62
-4 2 -49 8 -100 14 -52 6 -130 17 -174 25 -44 7 -134 21 -200 30 -239 32 -326
56 -469 127 l-85 42 -103 -32 c-142 -44 -213 -58 -355 -72 -267 -26 -583 46
-882 201 -78 40 -121 57 -135 53 -12 -3 -52 -22 -90 -41 -37 -19 -112 -46
-165 -61 -87 -23 -114 -26 -291 -26 -157 -1 -207 2 -258 16 -108 30 -194 69
-261 117 -34 25 -78 56 -96 69 l-33 24 -80 -56 c-97 -69 -175 -107 -272 -136
-99 -30 -366 -38 -515 -17 -94 14 -104 14 -175 -5 -244 -64 -225 -61 -425 -62
-173 -1 -197 1 -265 23 -155 48 -254 112 -342 219 -97 119 -75 109 -222 101
-137 -9 -147 -13 -161 -68 -13 -50 -89 -166 -149 -225 -59 -59 -160 -126 -241
-158 -125 -51 -241 -68 -471 -68 -107 0 -163 -4 -190 -14 -22 -8 -64 -24 -94
-35 -30 -12 -217 -53 -415 -91 -198 -39 -454 -91 -570 -115 -295 -63 -307 -65
-426 -75 -100 -8 -114 -12 -205 -58 -88 -44 -157 -70 -341 -126 -150 -46 -334
-45 -486 4 -97 31 -160 66 -240 132 -52 44 -71 44 -81 2 -29 -115 -232 -339
-371 -411 -158 -81 -387 -136 -570 -137 -142 0 -230 21 -365 87 -88 42 -117
63 -180 127 -88 89 -129 154 -170 273 -54 154 -57 261 -11 503 11 60 30 172
41 249 21 135 57 354 86 520 8 44 28 175 44 290 17 116 35 230 40 255 14 61
36 196 70 430 53 360 63 411 107 545 33 103 63 163 128 255 155 220 393 362
677 405 306 46 573 -23 814 -211 l82 -64 20 32 c11 18 34 61 52 96 61 115 206
250 326 303 205 90 476 141 635 119 211 -29 377 -124 504 -290 115 -150 155
-299 190 -710 8 -96 22 -256 30 -355 9 -99 18 -208 21 -243 6 -61 7 -63 32
-60 l26 3 1 620 c0 619 0 620 23 700 60 205 161 356 307 460 114 81 210 119
395 156 449 89 707 57 957 -117 35 -24 66 -44 70 -44 5 0 35 29 68 64 150 159
310 233 570 263 263 30 429 20 571 -33 105 -39 162 -75 263 -166 34 -32 67
-58 72 -58 5 0 36 34 70 75 141 171 314 268 554 310 55 10 140 13 275 11 174
-3 206 -6 295 -30z"/>
<path d="M8010 7584 c-120 -21 -154 -30 -216 -60 -95 -45 -160 -116 -218 -238
-24 -50 -47 -106 -51 -123 -3 -18 -11 -33 -16 -33 -5 0 -9 -10 -9 -22 0 -13
-7 -36 -15 -52 -8 -15 -15 -34 -15 -41 0 -6 -23 -84 -50 -171 -28 -87 -60
-190 -71 -229 -12 -38 -27 -88 -34 -110 -13 -40 -20 -65 -70 -250 -15 -55 -35
-113 -43 -130 l-15 -30 -7 25 c-4 14 -10 110 -14 214 -4 105 -12 249 -17 320
-5 72 -13 205 -18 296 -11 187 -34 275 -98 362 -97 133 -238 174 -518 149
-210 -19 -288 -46 -376 -128 -51 -48 -131 -191 -163 -293 -10 -30 -24 -69 -32
-87 -8 -17 -14 -37 -14 -45 0 -8 -4 -18 -10 -24 -5 -5 -21 -43 -36 -84 -32
-93 -62 -152 -74 -145 -5 3 -14 22 -21 43 -10 33 -32 82 -115 257 -71 150
-155 262 -234 313 -94 60 -202 72 -426 47 -178 -20 -324 -50 -379 -77 -105
-54 -180 -135 -226 -249 -27 -66 -28 -84 -15 -985 6 -415 6 -643 -1 -647 -5
-3 -33 1 -61 9 -48 14 -62 14 -190 -6 -75 -11 -202 -34 -282 -51 -80 -17 -161
-33 -181 -36 l-36 -5 -7 68 c-3 38 -22 251 -41 474 -38 446 -70 782 -84 875
-12 83 -45 148 -105 209 -93 94 -186 119 -367 97 -325 -38 -485 -143 -533
-351 -13 -53 -12 -85 4 -273 11 -116 24 -248 30 -292 6 -44 17 -163 25 -265 8
-102 22 -237 31 -300 16 -118 16 -218 0 -223 -5 -1 -26 38 -48 88 -22 49 -58
128 -80 175 -39 82 -77 163 -140 300 -98 212 -254 516 -298 582 -137 204 -329
310 -562 309 -208 -1 -407 -77 -517 -197 -45 -49 -113 -171 -132 -236 -5 -18
-36 -197 -69 -398 -33 -201 -67 -403 -75 -450 -9 -47 -26 -159 -40 -250 -14
-91 -36 -230 -49 -310 -14 -80 -34 -208 -46 -285 -11 -77 -34 -212 -49 -300
-81 -449 -77 -540 29 -681 80 -107 186 -146 337 -125 98 14 281 59 364 90 153
58 239 203 239 406 0 44 4 86 9 93 5 8 71 26 157 42 82 16 182 36 223 45 41 9
78 12 82 8 4 -4 24 -39 45 -78 67 -127 87 -151 167 -188 39 -19 89 -38 110
-41 55 -10 185 10 327 51 169 47 242 83 304 149 28 30 57 54 66 54 8 -1 40 -9
70 -20 30 -11 71 -19 90 -20 19 0 202 34 405 75 481 98 557 113 689 134 184
31 244 53 316 117 44 39 67 53 79 48 9 -3 50 -18 91 -31 70 -23 84 -25 210
-19 238 10 358 56 429 163 52 78 59 121 66 428 4 154 8 282 11 284 8 8 22 -14
86 -138 52 -102 72 -131 111 -163 66 -51 140 -72 237 -65 168 12 254 78 336
257 16 33 33 59 39 57 6 -2 13 -61 16 -143 7 -150 26 -294 40 -294 5 0 9 -5 9
-11 0 -6 15 -35 33 -64 35 -59 105 -107 184 -127 85 -21 390 7 504 46 22 8 58
26 79 41 l39 27 93 -33 c92 -34 94 -34 268 -34 199 0 267 12 334 56 89 59 124
131 151 308 8 52 16 95 17 97 2 1 75 4 162 5 l159 4 18 -87 c21 -104 52 -201
78 -245 25 -40 114 -107 166 -123 89 -29 430 -4 527 38 88 39 188 157 188 224
0 34 20 27 67 -24 125 -136 205 -192 390 -273 175 -76 244 -89 478 -90 154 0
219 4 282 18 92 20 272 91 345 137 27 16 53 30 59 30 5 0 22 -26 38 -58 62
-123 137 -163 373 -196 95 -14 243 -36 328 -50 232 -37 730 -106 819 -113 70
-5 84 -3 135 20 65 30 93 26 116 -17 28 -54 137 -101 365 -157 169 -42 258
-44 332 -6 69 36 118 88 143 153 19 53 82 280 117 423 10 41 23 76 29 78 13 4
36 -72 70 -232 31 -151 78 -337 98 -393 27 -77 96 -161 156 -192 19 -10 145
-55 280 -100 299 -101 358 -110 455 -64 68 32 134 93 163 151 11 21 34 90 52
153 47 171 65 231 111 380 64 210 92 300 152 505 31 105 81 264 111 355 30 91
83 257 116 370 34 113 79 258 101 322 49 150 58 206 44 288 -15 88 -38 131
-101 189 -78 72 -118 88 -474 188 -150 43 -278 9 -376 -100 -52 -58 -72 -97
-104 -207 -12 -41 -30 -100 -40 -130 -10 -30 -35 -114 -56 -187 -21 -72 -41
-130 -45 -127 -4 2 -10 19 -14 37 -9 41 -139 564 -165 663 -12 42 -30 94 -41
117 -27 52 -112 142 -164 173 -107 62 -512 161 -615 150 -82 -9 -169 -56 -234
-127 -31 -33 -56 -64 -56 -70 0 -5 -4 -9 -9 -9 -5 0 -14 27 -19 60 -21 118
-99 217 -198 252 -51 18 -283 56 -824 134 -230 33 -360 47 -445 48 -114 1
-123 -1 -180 -28 -78 -39 -148 -110 -185 -188 -17 -35 -30 -68 -30 -74 0 -6
-6 -17 -14 -23 -17 -14 -19 -12 -72 69 -109 165 -306 308 -510 368 -151 45
-235 55 -397 49 -236 -9 -436 -78 -622 -214 -227 -167 -421 -496 -510 -865
-13 -55 -27 -103 -29 -106 -12 -11 -48 129 -90 358 -7 36 -18 81 -24 100 -6
19 -21 80 -32 135 -47 219 -89 311 -192 417 -129 132 -264 178 -538 183 -91 2
-176 2 -190 -1z m541 -294 c10 -6 19 -17 19 -25 0 -9 6 -12 15 -9 14 6 20 -6
16 -30 -1 -5 5 -6 13 -3 50 19 125 -251 96 -343 -4 -14 -8 -19 -9 -12 -1 6 -8
12 -16 12 -11 0 -14 7 -11 25 3 14 1 23 -5 20 -5 -4 -9 4 -9 17 0 22 -1 22
-21 -7 -12 -16 -19 -22 -15 -12 3 9 2 17 -3 17 -5 0 -16 12 -26 26 -12 19 -14
29 -5 39 9 11 7 16 -8 24 -16 9 -18 17 -12 51 4 22 4 40 0 40 -4 0 -6 12 -4
27 1 15 -2 34 -8 41 -9 10 -8 16 2 22 12 7 11 10 -3 16 -9 3 -17 14 -17 24 0
11 -4 22 -10 25 -11 7 -14 25 -4 25 3 0 14 -5 25 -10z m-1768 -49 c35 -14 37
-42 2 -39 -14 1 -25 5 -25 9 0 3 -40 6 -90 6 -49 0 -90 -3 -90 -6 0 -8 -59 -5
-67 3 -3 3 -12 -2 -20 -12 -8 -9 -12 -11 -8 -4 3 6 0 12 -7 12 -8 0 -20 -6
-27 -12 -10 -11 -11 -9 -5 6 6 16 5 17 -15 6 -13 -6 -25 -9 -28 -6 -4 3 -12 1
-20 -6 -7 -6 -17 -8 -20 -4 -12 12 -12 36 0 37 7 1 23 3 37 4 81 7 144 15 147
18 8 8 210 -2 236 -12z m106 -253 c8 -154 6 -398 -4 -398 -5 0 -10 8 -10 18 0
9 -8 24 -17 33 -14 12 -18 36 -20 105 -2 49 -8 94 -13 99 -6 6 -8 9 -6 8 11
-7 27 44 20 63 -4 12 -5 25 -1 29 7 7 8 12 11 43 1 15 3 15 11 2 7 -11 10 -3
10 28 0 66 15 42 19 -30z m-1355 -262 c14 -19 26 -39 26 -45 0 -6 4 -11 9 -11
11 0 37 -61 33 -79 -2 -7 0 -11 5 -8 4 3 18 -15 31 -40 13 -25 18 -42 11 -38
-7 5 -10 3 -7 -6 3 -8 11 -13 17 -11 13 2 15 -14 2 -22 -5 -4 -12 0 -14 6 -4
10 -8 9 -16 -2 -7 -10 -11 -11 -11 -2 0 6 -9 12 -20 12 -11 0 -20 5 -20 11 0
5 5 7 10 4 6 -3 10 -2 10 3 0 12 -56 33 -64 25 -3 -4 -6 1 -6 11 0 9 -4 14
-10 11 -5 -3 -10 1 -10 9 0 18 -31 21 -47 5 -8 -8 -16 -4 -28 14 -9 15 -14 31
-11 36 4 5 2 12 -4 16 -6 4 -8 11 -5 16 4 5 1 9 -5 9 -6 0 1 11 16 25 15 14
31 25 35 25 5 0 9 7 9 15 0 8 4 15 10 15 5 0 7 7 4 15 -11 29 23 15 50 -19z
m-2333 -258 c1 -7 1 -16 0 -20 0 -5 4 -8 9 -8 15 0 12 -30 -2 -31 -10 0 -10
-2 0 -6 6 -2 10 -9 6 -14 -3 -5 -1 -9 4 -9 6 0 13 7 16 16 4 9 13 14 21 10 17
-6 21 9 5 19 -5 3 -10 17 -10 31 0 17 5 24 20 24 23 0 26 -10 8 -28 -9 -9 -9
-12 1 -12 7 0 9 -5 5 -11 -3 -6 -1 -15 5 -19 8 -4 10 -17 6 -33 -4 -15 -11
-24 -16 -21 -5 3 -9 1 -9 -5 0 -5 6 -12 13 -14 7 -4 6 -6 -4 -6 -9 -1 -19 6
-23 14 -6 16 -46 21 -46 5 0 -5 8 -7 18 -4 14 5 14 3 -3 -11 -20 -17 -20 -17
5 -12 l25 6 -23 -19 c-22 -18 -23 -48 -1 -35 5 4 9 0 9 -7 0 -9 -14 -14 -45
-14 -51 -1 -58 13 -24 47 l20 20 -22 20 c-22 19 -22 20 -3 34 19 15 19 15 0 8
-13 -4 -17 -3 -12 5 4 7 2 12 -3 12 -6 0 -11 7 -11 15 0 8 5 15 10 15 6 0 16
11 22 25 12 27 27 33 29 13z m4867 -19 c-7 -5 -9 -9 -4 -9 5 0 3 -7 -4 -15 -7
-9 -10 -18 -7 -22 4 -3 2 -12 -5 -20 -6 -7 -12 -28 -13 -45 -2 -17 -7 -33 -11
-37 -5 -3 -10 -17 -11 -31 -1 -14 -9 -43 -19 -65 -10 -22 -18 -42 -19 -45 -1
-3 -11 -26 -23 -52 -12 -26 -22 -51 -22 -56 0 -13 -32 -25 -40 -15 -14 15 -21
63 -10 63 6 0 8 5 5 10 -3 6 -1 10 6 10 9 0 9 3 0 14 -10 11 -8 16 6 20 22 7
67 71 59 85 -4 5 -2 12 3 15 5 3 7 15 4 26 -3 13 1 22 11 26 13 5 14 9 5 20
-9 11 -8 14 6 14 9 0 19 9 22 20 3 11 10 20 15 20 6 0 7 7 4 16 -3 8 -2 12 4
9 10 -6 13 5 10 42 -1 17 3 20 20 16 16 -4 18 -8 8 -14z m2315 -45 c18 -9 60
-45 93 -80 72 -75 137 -108 254 -131 76 -15 84 -15 182 5 57 12 122 27 145 34
23 7 45 9 49 5 4 -3 -1 -24 -9 -46 -17 -41 -75 -336 -98 -494 -13 -94 -30
-117 -56 -81 -65 89 -132 130 -238 143 -136 16 -195 -1 -355 -105 -90 -58
-138 -62 -193 -19 -41 33 -51 64 -66 200 -24 207 27 412 128 518 59 63 109 79
164 51z m4400 -33 c-11 -8 -12 -51 0 -44 5 3 6 -3 3 -15 -8 -23 12 -41 24 -22
5 8 9 8 13 -4 4 -10 13 -13 23 -9 12 4 15 3 10 -6 -4 -7 -13 -10 -19 -8 -7 2
-18 -3 -25 -12 -12 -14 -13 -14 -8 2 7 21 -7 22 -24 2 -9 -10 -9 -15 -1 -15 6
0 11 -5 11 -12 0 -9 -3 -9 -12 0 -16 16 -38 15 -38 -1 0 -8 14 -14 36 -15 26
-2 34 1 28 9 -5 9 -2 10 9 6 11 -4 14 -2 11 8 -5 11 0 12 23 3 34 -13 45 -61
17 -72 -9 -4 -19 -4 -22 -1 -3 3 0 5 7 5 9 0 9 5 1 20 -10 19 -12 19 -37 2
-19 -12 -25 -13 -19 -3 6 10 5 12 -3 7 -6 -4 -9 -16 -6 -27 4 -11 2 -19 -4
-19 -6 0 -11 12 -11 26 0 24 -1 25 -17 8 -13 -13 -14 -19 -5 -22 21 -7 13 -20
-17 -24 -22 -3 -28 -1 -26 11 2 9 4 16 5 16 1 0 3 20 4 45 4 51 14 82 26 75 4
-2 7 6 6 18 -1 12 4 33 11 46 6 14 10 28 7 33 -3 4 2 5 11 1 9 -3 13 -9 8 -12z
m-1837 -343 c-45 -180 -131 -567 -168 -752 -7 -32 -17 -60 -24 -63 -6 -2 -37
12 -67 31 -31 20 -60 36 -65 36 -4 0 -17 6 -27 14 -18 13 -16 15 23 40 24 15
50 43 62 66 41 80 105 362 115 505 5 81 3 109 -22 227 -5 27 -5 27 43 22 37
-3 63 1 104 18 39 17 56 20 58 12 2 -7 -13 -77 -32 -156z m1170 157 c9 -8 12
-15 7 -15 -4 0 -2 -4 5 -9 7 -4 14 -24 15 -44 1 -20 5 -37 8 -37 6 0 16 -29
20 -55 1 -2 9 -36 19 -75 10 -38 14 -70 9 -70 -5 0 -9 -7 -9 -16 0 -8 4 -13 9
-9 11 6 36 -33 27 -42 -3 -3 -8 2 -12 11 -3 9 -15 16 -26 16 -13 0 -18 5 -15
14 3 8 -1 17 -9 20 -9 3 -13 10 -9 15 3 5 1 12 -5 16 -5 3 -10 17 -10 31 0 13
-6 24 -12 24 -9 0 -8 4 2 10 10 6 11 10 3 10 -7 0 -13 9 -13 19 0 11 -4 22 -9
26 -6 3 -9 26 -7 51 1 26 -3 53 -11 64 -12 17 -12 19 2 14 13 -5 14 -2 5 20
-11 29 -6 33 16 11z m1151 -76 c-14 -8 -15 -14 -7 -24 12 -15 3 -65 -12 -65
-5 0 -7 -9 -3 -19 3 -11 1 -22 -5 -26 -5 -3 -10 -16 -10 -28 0 -23 -58 -181
-60 -162 0 6 -5 3 -10 -5 -15 -24 -35 2 -21 28 9 17 8 23 -6 31 -16 9 -16 12
-3 21 12 8 13 11 1 19 -9 6 -10 11 -2 15 6 4 11 17 11 30 0 12 11 33 25 46 19
18 22 26 13 32 -10 6 -8 12 6 23 11 8 14 15 8 15 -22 0 -13 19 11 22 13 2 22
10 22 21 0 19 21 37 45 37 11 -1 11 -3 -3 -11z m-6390 -61 c10 -13 29 -78 38
-128 3 -14 9 -47 15 -75 38 -194 65 -399 54 -417 -3 -4 0 -8 7 -8 10 0 10 -3
1 -12 -16 -16 -21 -9 -24 35 -1 22 -8 39 -17 42 -14 5 -14 7 -1 16 13 8 13 10
0 20 -11 8 -12 12 -2 16 16 6 16 23 -1 23 -18 0 -32 36 -32 78 1 22 -4 32 -15
32 -9 0 -11 3 -4 8 6 4 10 22 8 40 -1 20 1 30 8 26 5 -4 3 5 -6 19 -13 20 -14
26 -4 30 8 4 7 6 -4 6 -20 1 -23 14 -8 42 7 13 7 19 0 19 -5 0 -10 11 -10 25
0 14 5 25 10 25 6 0 5 6 -2 14 -7 7 -19 11 -27 8 -10 -4 -9 1 3 20 17 26 14
69 -7 96 -6 8 -6 12 1 12 5 0 14 -6 19 -12z"/>
<path d="M19948 7497 c-148 -90 -376 -303 -496 -465 -156 -211 -283 -471 -322
-662 l-17 -85 -139 -51 c-361 -132 -589 -255 -853 -460 -58 -46 -88 -63 -100
-58 -78 34 -395 95 -586 114 -218 21 -542 10 -760 -26 -230 -38 -531 -118
-753 -200 -139 -51 -293 -128 -322 -159 -24 -26 -25 -32 -29 -184 -6 -308 86
-970 197 -1413 23 -94 37 -116 106 -168 47 -35 366 -193 434 -214 50 -16 24
-34 -138 -91 l-115 -40 -30 -55 c-29 -53 -30 -60 -29 -175 1 -99 7 -149 38
-290 71 -325 150 -599 192 -666 34 -55 72 -82 219 -152 74 -37 135 -69 135
-73 0 -3 -27 -35 -60 -71 -107 -114 -143 -223 -121 -369 30 -209 177 -351 430
-415 155 -39 384 -12 466 55 42 35 29 51 -96 113 -251 125 -243 209 45 437
128 102 176 151 176 179 0 17 -234 240 -350 333 -100 81 -170 147 -170 161 0
25 393 101 531 103 14 0 17 -24 23 -192 14 -399 48 -724 96 -911 53 -203 169
-406 313 -544 124 -119 209 -156 236 -104 9 17 43 245 57 384 3 38 12 71 18
73 6 2 56 -25 111 -61 310 -204 758 -358 1225 -422 186 -25 610 -25 790 1 373
52 712 152 959 282 46 24 91 44 100 44 15 0 14 -18 -13 -179 -26 -151 -28
-183 -18 -206 11 -24 17 -27 45 -21 106 20 319 167 465 321 142 148 229 274
323 468 31 61 37 68 74 78 249 62 371 140 483 308 57 84 93 170 108 254 6 33
10 38 28 33 11 -3 70 -18 131 -32 l110 -27 62 -64 c86 -90 108 -137 108 -238
0 -69 -4 -86 -27 -127 -15 -25 -47 -60 -70 -78 -60 -44 -191 -106 -268 -125
-81 -21 -100 -31 -100 -53 0 -50 88 -103 236 -144 65 -18 106 -22 229 -22 138
0 157 2 235 28 260 86 407 218 465 420 32 111 1 229 -90 347 l-35 47 97 51
c54 28 105 55 113 59 33 18 136 187 231 376 54 110 103 213 109 230 5 17 20
65 35 106 45 134 27 240 -61 352 -25 32 -44 64 -41 71 2 7 39 23 81 35 42 13
79 28 82 33 3 5 12 9 20 9 24 0 166 69 193 93 31 29 44 60 85 209 19 68 64
227 101 353 36 127 72 253 80 280 7 28 27 102 45 165 94 341 120 456 127 562
5 82 4 90 -19 125 -103 155 -449 386 -782 520 -219 88 -451 154 -681 193 -232
40 -700 37 -968 -6 -157 -25 -339 -64 -401 -86 -38 -14 -63 -18 -71 -12 -7 5
-55 43 -106 85 -233 188 -476 322 -803 445 -295 112 -710 178 -1081 172 l-200
-2 1 149 c2 210 26 393 93 705 11 52 21 117 21 143 0 122 -79 161 -192 94z
m72 -157 c0 -17 -18 -103 -39 -193 -46 -187 -65 -299 -86 -487 -21 -194 -31
-528 -17 -593 6 -28 17 -83 23 -122 6 -38 22 -97 34 -130 13 -33 25 -76 28
-96 5 -33 45 -124 93 -208 34 -60 175 -231 203 -245 22 -12 32 -12 58 -1 38
16 47 41 38 106 -5 33 -13 53 -26 59 -35 19 -139 135 -139 156 0 5 -14 27 -30
48 -18 24 -30 52 -30 71 0 17 -7 41 -16 54 -33 46 -71 264 -75 431 l-2 75 274
-1 c283 0 363 -8 607 -55 183 -36 437 -125 601 -212 231 -122 347 -192 466
-281 119 -89 353 -313 377 -360 11 -23 37 -59 58 -81 73 -78 244 -369 303
-515 5 -14 14 -34 18 -45 15 -32 55 -164 73 -240 9 -38 23 -92 31 -120 7 -27
16 -72 19 -100 8 -61 16 -99 61 -285 40 -162 55 -207 113 -330 74 -158 122
-226 268 -371 76 -76 135 -141 132 -144 -9 -9 -346 -9 -436 0 -40 3 -87 11
-105 16 -17 5 -62 9 -99 9 -55 0 -67 -3 -70 -17 -6 -28 8 -81 27 -99 18 -19
53 -93 91 -194 33 -86 51 -129 71 -165 32 -59 53 -101 87 -182 l35 -83 -30 0
c-42 0 -182 30 -193 41 -6 5 -30 9 -55 9 -45 0 -125 23 -266 77 -69 27 -84 34
-175 85 -25 14 -81 44 -125 68 -252 138 -484 332 -702 590 -48 57 -123 160
-123 168 0 5 -11 19 -25 32 -14 13 -25 28 -25 32 0 5 -11 24 -24 41 -13 18
-36 61 -51 97 -14 36 -33 79 -41 96 -13 29 -11 41 18 150 60 230 67 260 87
379 26 153 51 368 51 430 0 53 -29 105 -60 105 -10 0 -29 -13 -42 -29 -23 -27
-25 -39 -31 -192 -13 -300 -67 -555 -177 -834 -26 -66 -50 -132 -54 -147 -3
-16 -11 -28 -16 -28 -6 0 -10 -9 -10 -20 0 -11 -22 -63 -50 -116 -27 -53 -50
-105 -50 -116 0 -11 -7 -26 -15 -34 -8 -9 -15 -29 -15 -45 0 -18 -5 -29 -14
-29 -9 0 -16 -18 -20 -52 -4 -29 -11 -57 -15 -63 -5 -5 -16 -37 -27 -70 -25
-84 -189 -456 -197 -448 -4 3 -7 -1 -7 -10 0 -15 -2 -15 -22 1 -43 34 -150
152 -188 206 -12 18 -37 50 -133 171 -13 17 -30 41 -37 54 -7 14 -21 34 -31
45 -11 11 -19 30 -19 42 0 13 -8 29 -18 36 -17 12 -47 82 -112 261 -41 111
-54 123 -89 88 -24 -24 -55 -106 -92 -241 -31 -112 -90 -272 -98 -264 -3 2 -6
10 -8 17 -1 7 -21 66 -44 132 -129 376 -163 594 -164 1055 0 248 3 321 17 390
9 47 18 139 20 205 l3 120 -29 3 c-36 4 -76 -5 -76 -18 0 -6 -9 -19 -20 -30
-17 -17 -20 -34 -21 -117 -1 -54 -1 -120 0 -148 2 -51 -5 -66 -84 -174 -152
-207 -693 -761 -931 -952 -169 -136 -381 -285 -499 -349 -33 -18 -107 -60
-164 -93 -91 -52 -262 -137 -277 -137 -2 0 -1 8 4 18 5 9 9 33 10 52 5 87 65
285 104 342 24 35 23 51 -8 87 -39 46 -59 41 -80 -21 -22 -69 -50 -105 -88
-117 -17 -6 -118 -15 -224 -22 -150 -9 -224 -9 -335 1 -158 13 -381 50 -470
77 l-59 18 184 92 c292 147 453 255 533 357 67 85 177 258 207 326 6 14 22 50
35 80 43 95 294 542 336 598 45 60 32 59 188 20 47 -12 93 -19 102 -15 9 3 23
20 32 37 15 29 15 31 -7 53 -16 16 -46 27 -97 36 -41 7 -89 20 -107 27 -19 8
-46 14 -61 14 -34 0 -200 64 -308 118 -79 40 -185 127 -271 222 -47 53 -78
100 -70 107 5 6 74 -5 171 -27 55 -12 161 -7 320 16 55 7 118 16 140 19 22 3
99 14 170 25 72 11 164 24 205 30 41 6 113 17 160 25 76 12 143 21 305 40 28
3 123 8 213 10 154 3 165 4 188 26 31 29 31 64 0 84 -34 22 -235 20 -416 -4
-192 -26 -268 -32 -274 -23 -6 10 46 66 109 118 79 65 266 178 409 248 140 67
384 153 410 143 13 -5 16 -24 16 -99 0 -253 100 -443 327 -624 91 -73 251
-164 288 -164 7 0 35 -11 62 -25 43 -22 53 -23 93 -14 58 13 66 21 51 57 -13
30 -120 102 -153 102 -22 0 -186 89 -236 128 -20 16 -45 33 -55 38 -41 23
-135 127 -160 178 -64 131 -88 223 -94 362 -9 201 34 390 140 617 92 195 271
427 457 589 127 111 180 134 180 78z m-2322 -1678 c157 -20 252 -44 252 -64 0
-6 -9 -12 -20 -15 -11 -3 -20 -8 -20 -12 0 -14 -107 -40 -255 -63 -150 -23
-283 -25 -760 -15 -77 2 -80 1 -83 -21 -2 -13 3 -34 12 -47 9 -13 22 -41 29
-63 12 -34 107 -158 177 -232 73 -77 190 -149 355 -220 55 -24 104 -47 109
-51 5 -5 -11 -42 -39 -86 -78 -126 -152 -258 -232 -415 -41 -82 -79 -148 -86
-148 -7 0 -70 -7 -142 -15 -196 -21 -391 -63 -562 -121 -56 -19 -109 -34 -116
-34 -19 0 -101 -27 -270 -89 -75 -28 -143 -51 -151 -51 -13 0 -19 19 -50 150
-20 86 -59 315 -90 520 -42 284 -57 464 -54 634 l3 159 60 31 c176 91 314 136
700 225 92 21 314 57 395 65 25 2 187 2 360 1 242 -2 353 -8 478 -23z m5953 4
c181 -28 521 -131 684 -206 22 -10 69 -31 105 -46 136 -59 347 -192 480 -303
66 -55 78 -69 86 -99 11 -39 -104 -518 -216 -903 -23 -79 -59 -207 -81 -284
-52 -190 -72 -239 -97 -243 -11 -2 -76 27 -144 64 -301 164 -477 239 -712 304
-147 41 -502 98 -631 103 l-70 2 -13 85 c-37 240 -98 487 -147 588 -14 28 -25
55 -25 60 0 8 -56 118 -156 307 -37 72 -75 144 -84 162 -8 17 -23 34 -32 36
-9 3 -26 23 -37 45 -24 47 -79 115 -152 189 -28 28 -48 56 -45 61 3 5 25 14
48 20 40 10 74 16 223 41 64 11 250 29 350 35 145 8 574 -4 666 -18z m-4261
-1428 c0 -117 30 -512 46 -608 28 -167 126 -548 160 -627 8 -17 14 -35 14 -40
1 -4 9 -26 20 -48 11 -22 19 -49 20 -60 1 -53 68 -113 115 -103 20 4 47 76 69
187 21 101 71 256 96 295 l19 30 11 -29 c40 -105 173 -334 282 -483 79 -110
183 -213 272 -271 116 -75 112 -77 170 81 18 51 83 208 143 348 61 140 138
327 173 415 34 88 70 176 80 195 10 20 21 50 25 68 4 18 12 31 18 29 7 -2 37
-46 67 -98 120 -204 267 -399 390 -513 l53 -49 -12 -111 c-6 -61 -25 -241 -41
-401 -16 -159 -36 -342 -45 -405 -8 -63 -20 -155 -26 -205 -12 -90 -40 -175
-60 -175 -14 0 -69 -62 -69 -78 0 -10 8 -12 29 -7 l30 6 -4 -53 c-3 -29 -10
-74 -17 -100 -9 -35 -9 -50 0 -61 14 -16 -11 -201 -30 -224 -38 -46 -281 -155
-518 -231 -359 -117 -597 -156 -950 -156 -232 0 -368 13 -595 55 -464 86 -950
296 -1179 510 -77 71 -160 190 -177 253 -19 69 -7 146 30 205 28 43 131 142
160 153 13 5 39 203 56 433 9 110 22 254 30 320 44 369 66 542 70 561 3 12 49
57 102 100 281 225 544 487 856 852 49 56 95 102 103 102 11 0 14 -15 14 -62z
m-2300 -155 c0 -12 -112 -193 -158 -255 -55 -74 -69 -78 -123 -31 -160 140
-204 196 -169 218 13 8 201 40 290 50 36 4 74 11 85 16 26 10 75 11 75 2z
m7215 -503 c3 -5 13 -6 22 -3 10 4 14 2 10 -4 -4 -7 7 -13 28 -17 19 -4 34
-12 32 -19 -1 -7 7 -12 18 -12 40 -1 125 -45 125 -66 0 -10 -80 -42 -114 -46
-23 -2 -26 0 -17 10 8 10 7 19 -3 33 -10 13 -11 23 -4 31 8 10 5 13 -11 13
-11 0 -21 5 -21 11 0 5 4 7 10 4 6 -3 7 1 4 9 -3 9 -11 13 -16 10 -6 -4 -14 0
-19 7 -8 11 -14 9 -32 -11 -21 -23 -123 -68 -111 -49 9 14 -13 10 -25 -5 -13
-15 -4 -47 16 -59 7 -5 11 -13 7 -18 -3 -6 -12 -5 -22 3 -15 12 -16 11 -3 -4
12 -16 16 -16 41 -3 25 13 29 13 34 0 3 -8 15 -15 26 -15 11 0 20 -7 20 -16 0
-8 -4 -13 -9 -9 -5 3 -12 1 -16 -5 -4 -6 -10 -8 -15 -5 -5 3 -12 1 -15 -5 -5
-8 -11 -8 -20 0 -8 7 -19 9 -24 6 -5 -4 -13 -1 -18 6 -9 15 -97 58 -117 58 -7
0 -21 9 -30 19 -18 20 -19 20 29 48 21 12 38 20 144 69 33 16 61 32 61 36 0
11 28 10 35 -2z m-795 -131 c14 -5 57 -13 95 -19 39 -6 74 -15 80 -21 5 -5 20
-9 33 -9 35 0 195 -56 290 -102 190 -92 322 -238 322 -358 0 -71 -60 -234
-160 -433 -50 -98 -152 -261 -171 -273 -6 -3 -24 4 -41 16 -16 12 -67 43 -111
69 -75 43 -107 59 -237 119 -96 45 -235 83 -365 101 -74 9 -140 23 -147 29
-23 19 -81 145 -117 252 -12 36 -28 77 -36 91 -9 17 -13 39 -9 58 4 17 7 31 8
31 0 0 114 5 251 11 249 10 267 11 347 24 86 15 117 49 96 106 -13 35 -38 58
-85 80 -48 22 -88 58 -98 89 -3 11 -11 20 -16 20 -13 0 -139 127 -132 133 8 8
174 -3 203 -14z m-7248 -235 c51 -14 118 -31 149 -38 31 -7 61 -16 68 -20 31
-20 457 -58 566 -52 311 20 311 20 318 2 4 -9 0 -36 -8 -59 -8 -23 -19 -76
-25 -117 -6 -41 -16 -99 -21 -129 -15 -73 -6 -80 75 -58 35 9 66 17 68 17 1 0
3 -46 3 -103 l0 -102 -95 -6 c-140 -10 -286 -28 -360 -45 -36 -8 -87 -20 -115
-26 -66 -13 -259 -75 -312 -99 -23 -10 -44 -19 -46 -19 -3 0 -47 -20 -99 -44
-120 -57 -120 -57 -129 -21 -4 17 -21 75 -37 130 -17 55 -55 216 -86 357 -64
292 -71 386 -35 432 11 14 22 26 24 26 2 0 46 -12 97 -26z m1938 -53 c0 -6 -4
-12 -9 -15 -4 -3 -11 -40 -15 -83 -3 -43 -13 -111 -21 -152 -9 -40 -17 -78
-18 -85 -1 -6 -5 -13 -9 -16 -4 -3 -9 -21 -12 -40 -2 -19 -11 -59 -19 -89 -8
-31 -12 -64 -8 -75 11 -30 11 -230 1 -236 -12 -7 -19 -86 -21 -225 -2 -157 -3
-161 -65 -201 -59 -38 -103 -95 -135 -175 -18 -46 -20 -68 -16 -145 6 -121 39
-193 133 -293 l68 -72 -18 -207 c-22 -262 -23 -263 -112 -168 -136 145 -229
328 -285 556 -27 115 -43 299 -54 630 -3 96 -10 220 -15 275 -5 55 -12 180
-15 277 l-5 177 33 24 c17 14 100 61 182 104 83 44 211 117 285 161 140 83
150 88 150 73z m3558 -313 c36 -50 367 -279 472 -327 41 -19 88 -43 103 -54
27 -18 28 -23 22 -66 -25 -172 -169 -666 -241 -829 -167 -377 -298 -564 -509
-730 -58 -45 -136 -92 -154 -92 -15 0 -11 38 29 265 26 150 43 252 115 700 21
126 53 362 65 480 6 50 17 142 25 205 8 63 14 162 15 220 0 123 19 262 35 252
5 -3 16 -14 23 -24z m872 -473 c69 -20 131 -39 139 -41 38 -12 -31 -312 -104
-452 -55 -106 -108 -170 -186 -223 -89 -60 -221 -110 -234 -89 -3 5 11 53 30
107 55 153 140 455 171 607 23 112 31 137 43 133 9 -3 72 -21 141 -42z m1021
-392 c29 -15 80 -52 111 -83 72 -72 94 -136 84 -248 -10 -119 -64 -206 -177
-283 -75 -51 -124 -71 -235 -99 -76 -19 -105 -22 -199 -17 -166 9 -202 20
-152 45 169 86 257 181 287 311 23 99 -10 227 -85 332 -19 27 -35 54 -35 59 0
6 65 10 173 10 168 0 175 -1 228 -27z m-6433 -102 c28 -14 52 -28 52 -32 0 -9
-59 -60 -156 -136 -139 -108 -203 -202 -204 -298 0 -82 47 -162 140 -235 l25
-19 -56 -1 c-30 0 -97 9 -148 20 -169 36 -278 107 -332 215 -21 43 -24 64 -24
150 0 89 4 107 29 162 46 100 135 169 249 193 23 5 116 8 207 7 151 -2 170 -4
218 -26z"/>
<path d="M19030 3661 c-22 -43 -12 -56 106 -137 189 -129 207 -134 202 -56 -3
43 -5 46 -38 55 -19 5 -46 20 -60 34 -32 32 -170 123 -187 123 -7 0 -17 -9
-23 -19z"/>
<path d="M21023 3073 c-42 -20 -50 -49 -59 -203 -3 -69 -13 -165 -20 -215 -8
-49 -25 -171 -38 -270 -14 -99 -29 -209 -35 -245 -12 -71 -15 -209 -5 -234 7
-19 86 -56 119 -56 12 0 31 10 43 23 19 20 25 52 47 252 14 127 37 316 50 420
30 232 50 476 42 499 -13 33 -100 51 -144 29z"/>
<path d="M18937 3043 c-20 -16 -38 -34 -41 -41 -3 -7 -10 -66 -16 -130 -17
-185 -29 -296 -50 -447 -11 -77 -29 -223 -41 -324 -19 -171 -20 -187 -5 -218
17 -37 69 -73 103 -73 32 0 91 63 97 102 8 58 46 398 61 563 9 88 20 189 25
225 5 36 12 118 16 182 l7 118 -37 35 c-45 42 -71 44 -119 8z"/>
<path d="M18537 1753 c-2 -5 -8 -26 -12 -48 -8 -47 -48 -138 -76 -173 -27 -34
-24 -42 14 -42 30 0 37 5 61 50 32 59 66 154 66 185 0 27 -41 48 -53 28z"/>
<path d="M21263 1745 c-24 -17 -66 -112 -88 -202 -12 -49 -13 -67 -3 -87 6
-14 14 -26 18 -26 15 0 39 38 53 85 9 28 27 87 41 132 14 45 26 89 26 98 0 19
-19 19 -47 0z"/>
<path d="M18292 1738 c-24 -30 -71 -185 -72 -236 0 -30 2 -32 20 -22 40 22
130 219 116 255 -7 18 -50 20 -64 3z"/>
<path d="M19522 1498 c-7 -7 -12 -24 -12 -39 0 -21 20 -45 86 -109 48 -45 118
-107 156 -138 64 -51 75 -56 127 -60 68 -5 96 8 273 119 161 102 236 157 243
179 9 28 -12 60 -39 60 -13 0 -102 -52 -202 -118 -219 -145 -200 -133 -240
-142 -46 -11 -99 24 -235 156 -105 101 -132 117 -157 92z"/>
<path d="M15320 4025 c0 -33 -54 -178 -79 -214 -12 -16 -21 -33 -21 -39 0 -5
25 -19 56 -31 32 -12 75 -35 97 -51 22 -16 42 -28 44 -26 2 2 -10 52 -27 111
-16 59 -35 146 -42 191 -11 79 -28 114 -28 59z"/>
<path d="M13578 3805 c-20 -14 -43 -25 -50 -25 -7 -1 -24 -7 -38 -15 -24 -13
-24 -14 -5 -20 43 -14 184 -91 255 -139 41 -28 106 -82 143 -119 67 -67 69
-68 93 -52 13 8 24 20 24 25 0 5 25 28 55 51 31 23 52 46 47 51 -4 4 -33 15
-63 22 -127 33 -348 159 -381 217 -21 35 -33 36 -80 4z"/>
<path d="M12740 3460 c-190 -17 -401 -95 -556 -206 -83 -59 -205 -183 -269
-275 -55 -77 -160 -277 -190 -359 -18 -49 -43 -144 -69 -255 -14 -62 -41 -303
-48 -425 l-3 -45 -80 3 c-44 2 -84 7 -89 12 -5 5 -4 85 2 192 16 257 35 919
29 998 -9 120 -85 234 -183 275 -49 20 -309 44 -559 52 l-200 5 -55 -28 c-77
-39 -80 -42 -353 -414 -39 -52 -96 -129 -127 -170 -61 -81 -157 -216 -347
-485 -176 -251 -225 -323 -269 -394 l-39 -65 3 -290 2 -291 36 -73 c39 -77 86
-127 156 -164 43 -23 47 -23 503 -28 l460 -5 3 -124 c1 -69 6 -130 11 -135 5
-6 12 -31 16 -56 13 -80 63 -146 148 -196 l58 -34 234 0 c212 0 239 2 286 20
75 30 115 65 146 128 26 54 28 67 33 221 l5 165 47 12 c88 22 164 79 205 154
21 37 50 46 63 20 4 -8 23 -49 41 -89 40 -88 120 -204 192 -280 80 -83 228
-188 340 -241 284 -136 645 -146 947 -27 328 129 575 400 713 784 69 191 104
474 93 756 -3 86 -4 157 -2 157 2 0 20 -7 40 -15 29 -12 129 -23 219 -25 10 0
-5 -382 -44 -1186 -14 -283 -11 -343 21 -408 27 -54 113 -134 163 -153 41 -15
464 -17 527 -2 64 15 121 54 165 115 67 92 56 -32 130 1404 31 593 35 680 40
855 4 99 8 194 10 210 7 52 -16 152 -45 199 -41 64 -119 122 -198 146 -119 38
-475 24 -550 -21 -19 -11 -98 -70 -175 -133 -78 -62 -178 -137 -222 -166 -150
-100 -214 -174 -216 -249 0 -14 -4 -34 -8 -45 -6 -17 -9 -16 -26 10 -11 16
-31 54 -46 84 -64 134 -210 309 -332 398 -184 135 -501 209 -787 182z m-1646
-252 c5 -10 7 -10 12 0 5 10 9 10 22 0 12 -10 16 -10 19 0 8 22 93 10 93 -13
0 -7 4 -15 9 -17 16 -6 20 -86 5 -99 -11 -9 -18 -9 -26 -1 -8 8 -15 9 -25 1
-17 -14 -47 -3 -37 13 5 10 4 10 -6 1 -14 -13 -50 0 -50 18 0 6 4 8 9 5 5 -4
11 -1 13 5 3 9 9 9 26 0 23 -12 28 -6 13 18 -5 7 -14 10 -20 7 -6 -4 -11 -4
-10 1 1 4 1 17 0 28 -1 16 -3 17 -10 6 -8 -12 -15 -9 -41 12 -19 17 -26 27
-17 27 9 0 18 -6 21 -12z m2660 -454 c26 -56 34 -81 17 -56 -6 10 -10 9 -14
-8 -4 -17 -2 -20 13 -15 16 5 22 -5 39 -63 12 -38 21 -79 21 -90 0 -11 5 -24
11 -27 5 -4 8 -12 6 -18 -2 -7 -1 -24 3 -38 7 -23 5 -26 -12 -21 -11 3 -17 10
-14 18 3 8 -1 14 -9 14 -10 0 -15 10 -15 27 0 21 -3 24 -12 15 -16 -16 -31
-16 -22 0 18 29 4 77 -23 79 -5 0 -6 8 -5 17 3 13 1 14 -12 3 -10 -8 -16 -9
-16 -3 0 6 7 15 16 20 14 8 14 10 -1 25 -13 14 -14 18 -3 22 14 6 17 123 3
144 -3 6 -4 11 -1 11 2 0 16 -25 30 -56z m-804 -285 c83 -50 111 -91 156 -230
25 -77 28 -97 28 -239 0 -177 -23 -297 -77 -408 -37 -76 -121 -165 -173 -182
-133 -44 -258 65 -298 264 -31 150 -15 433 31 555 22 59 92 168 129 202 67 62
142 75 204 38z m1612 -18 c-10 -6 -10 -10 3 -21 12 -10 15 -10 16 1 0 8 5 2
10 -13 6 -16 16 -25 24 -22 7 3 19 -4 25 -16 8 -15 8 -20 1 -16 -6 4 -11 0
-11 -9 0 -11 6 -14 25 -9 15 4 25 2 25 -5 0 -6 -5 -11 -11 -11 -6 0 -9 -6 -6
-12 2 -7 11 -12 18 -10 11 3 11 1 2 -9 -10 -10 -15 -10 -27 0 -12 10 -14 9 -9
-9 4 -16 2 -19 -11 -14 -9 3 -14 10 -11 14 3 5 -11 3 -30 -3 -39 -11 -46 -32
-15 -42 11 -3 20 -11 20 -16 0 -14 -27 -11 -34 4 -3 6 -3 2 -1 -9 4 -14 0 -24
-9 -27 -9 -4 -16 1 -19 11 -2 11 -7 4 -14 -18 l-10 -35 -7 42 c-8 43 0 103 13
103 3 0 8 21 10 48 6 100 17 140 34 123 9 -9 9 -14 -1 -20z m-3990 -394 c-7
-36 -12 -83 -12 -106 l0 -41 -70 0 c-62 0 -70 2 -70 19 0 10 21 46 48 79 26
34 58 77 72 96 35 48 46 31 32 -47z m3934 -249 c-1 -18 4 -52 11 -76 12 -42
13 -55 13 -176 0 -32 5 -67 10 -77 7 -12 7 -20 0 -24 -6 -4 -8 -11 -4 -16 3
-5 1 -16 -6 -24 -7 -9 -8 -15 0 -20 15 -10 12 -55 -5 -61 -9 -4 -14 -11 -13
-18 2 -6 -7 -21 -19 -33 -19 -19 -22 -20 -25 -5 -2 9 -1 32 3 50 4 17 3 35 -2
38 -5 3 -7 9 -5 13 3 4 7 79 10 167 6 156 11 227 21 272 8 32 13 27 11 -10z"/>
</g>
</svg>
